<svg width="619" height="50" viewBox="0 0 619 50" fill="none" xmlns="http://www.w3.org/2000/svg">
<path fill-rule="evenodd" clip-rule="evenodd" d="M0 49V0.967953H21.072C26.3033 0.967953 30.8338 1.78645 34.5836 3.5207C38.3774 5.27533 41.2842 7.98233 43.2433 11.6093C45.2439 15.234 46.176 19.7314 46.176 24.984C46.176 30.2013 45.2413 34.6937 43.2458 38.3539C41.2867 41.9832 38.379 44.6918 34.5836 46.4472C30.8338 48.1815 26.3033 49 21.072 49H0ZM41.488 37.4C43.28 34.1146 44.176 29.976 44.176 24.984C44.176 19.9493 43.28 15.8106 41.488 12.568C39.7387 9.32528 37.1573 6.91462 33.744 5.33595C30.3307 3.75729 26.1067 2.96795 21.072 2.96795H2V47H21.072C26.1067 47 30.3307 46.2106 33.744 44.632C37.1573 43.0533 39.7387 40.6426 41.488 37.4ZM24.0777 33.9288L24.0894 33.9245C24.9759 33.5961 25.6281 33.1484 26.1095 32.6104C26.6064 32.0551 27.0068 31.3319 27.277 30.3865C27.5582 29.4022 27.712 28.2476 27.712 26.904V23.064C27.712 21.7203 27.5582 20.5657 27.277 19.5814C27.0068 18.636 26.6064 17.9128 26.1095 17.3575C25.6281 16.8195 24.9759 16.3718 24.0894 16.0435L24.0777 16.0391L24.066 16.0346C23.2419 15.7177 22.1748 15.528 20.816 15.528H18.144V34.44H20.816C22.1748 34.44 23.2419 34.2502 24.066 33.9333L24.0777 33.9288ZM16.144 36.44V13.528H20.816C22.352 13.528 23.6747 13.7413 24.784 14.168C25.936 14.5946 26.8747 15.2133 27.6 16.024C28.3253 16.8346 28.8587 17.8373 29.2 19.032C29.5413 20.2266 29.712 21.5706 29.712 23.064V26.904C29.712 28.3973 29.5413 29.7413 29.2 30.936C28.8587 32.1306 28.3253 33.1333 27.6 33.944C26.8747 34.7546 25.936 35.3733 24.784 35.8C23.6747 36.2266 22.352 36.44 20.816 36.44H16.144ZM56.2125 49V0.967953H74.3565V33.736H96.9485V49H56.2125ZM72.3565 35.736V2.96795H58.2125V47H94.9485V35.736H72.3565ZM100.345 49L117.869 0.967953H137.115L154.639 49H135.314L133.458 42.792H121.014L119.158 49H100.345ZM119.524 40.792H134.948L136.804 47H151.78L135.716 2.96795H119.268L103.204 47H117.668L119.524 40.792ZM127.559 15.3774C127.547 15.3365 127.535 15.296 127.524 15.256H127.012C127.001 15.3076 126.989 15.3597 126.977 15.4123C126.812 16.1304 126.594 16.9383 126.321 17.836C126.318 17.8455 126.316 17.8549 126.313 17.8644C126.311 17.8696 126.31 17.8748 126.308 17.88C126.285 17.9672 126.262 18.0547 126.239 18.1426C126.003 19.0436 125.748 19.9801 125.476 20.952C125.177 21.976 124.879 22.9573 124.58 23.896L122.468 30.936H132.068L129.956 23.896C129.785 23.384 129.593 22.7653 129.38 22.04C129.167 21.3146 128.953 20.5466 128.74 19.736C128.598 19.198 128.457 18.6694 128.315 18.1502C128.244 17.887 128.172 17.6263 128.1 17.368C127.901 16.6116 127.72 15.9481 127.559 15.3774ZM128.049 24.4994C127.871 23.964 127.675 23.331 127.461 22.6043C127.397 22.387 127.334 22.1663 127.27 21.9421C127.011 22.8207 126.751 23.669 126.491 24.4868L125.156 28.936H129.38L128.049 24.4994ZM169.752 46.9968L169.743 46.9923C165.997 45.0953 163.133 42.2537 161.191 38.5132L161.184 38.4999L161.178 38.4864C159.296 34.7233 158.406 30.1944 158.406 24.984C158.406 17.1512 160.413 10.8855 164.752 6.54574L164.76 6.53793C169.14 2.20668 175.42 0.199951 183.254 0.199951C187.739 0.199951 191.742 0.961248 195.211 2.55187C198.752 4.11301 201.542 6.48319 203.513 9.65659C205.501 12.8565 206.439 16.6987 206.439 21.08V23.08H188.935V21.08C188.935 19.6032 188.676 18.4421 188.237 17.5334C187.806 16.6407 187.199 15.9811 186.395 15.5045L186.381 15.496L186.366 15.4873C185.656 15.05 184.639 14.76 183.19 14.76C181.467 14.76 180.283 15.1249 179.475 15.6773C178.654 16.2681 178.014 17.1108 177.584 18.3032C177.123 19.5781 176.871 21.1113 176.871 22.936V27.032C176.871 28.8457 177.12 30.3714 177.575 31.6417C178.049 32.849 178.718 33.7041 179.553 34.3005C180.318 34.8467 181.432 35.208 183.062 35.208C184.731 35.208 185.912 34.921 186.726 34.485L186.739 34.4782L186.752 34.4715C187.63 34.0171 188.234 33.4005 188.634 32.6015L188.64 32.5893L188.646 32.5771C189.113 31.674 189.383 30.55 189.383 29.144V27.144H206.439V29.144C206.439 33.4306 205.548 37.1982 203.657 40.3489C201.771 43.4937 199.04 45.8676 195.546 47.4733L195.535 47.478L195.525 47.4826C192.047 49.0334 187.936 49.768 183.254 49.768C178.044 49.768 173.515 48.8783 169.752 46.9968ZM175.702 32.344C175.148 30.808 174.871 29.0373 174.871 27.032V22.936C174.871 20.9306 175.148 19.16 175.702 17.624C176.257 16.088 177.132 14.8933 178.327 14.04C179.564 13.1866 181.185 12.76 183.19 12.76C184.897 12.76 186.305 13.1013 187.414 13.784C188.566 14.4666 189.441 15.4266 190.039 16.664C190.636 17.9013 190.935 19.3733 190.935 21.08H204.439C204.439 20.3954 204.414 19.7287 204.365 19.08C204.122 15.8467 203.271 13.0573 201.815 10.712C200.065 7.89595 197.59 5.78395 194.391 4.37595C191.233 2.92529 187.521 2.19995 183.254 2.19995C175.745 2.19995 170.049 4.11995 166.167 7.95995C162.327 11.8 160.406 17.4746 160.406 24.984C160.406 29.976 161.26 34.1786 162.966 37.592C164.716 40.9626 167.276 43.5013 170.646 45.208C174.06 46.9146 178.262 47.768 183.254 47.768C187.734 47.768 191.553 47.064 194.711 45.656C197.868 44.2053 200.279 42.0933 201.943 39.32C203.322 37.0201 204.13 34.2947 204.366 31.144C204.414 30.4953 204.439 29.8286 204.439 29.144H191.383C191.383 30.808 191.062 32.2586 190.422 33.496C189.825 34.6906 188.908 35.608 187.671 36.248C186.476 36.888 184.94 37.208 183.062 37.208C181.143 37.208 179.585 36.7813 178.391 35.928C177.196 35.0746 176.3 33.88 175.702 32.344ZM212.025 49V41.8213L230.582 15.528H213.561V0.967953H258.201V8.14663L239.644 34.44H258.713V49H212.025ZM235.785 36.44L256.201 7.51195V2.96795H215.561V13.528H234.441L214.025 42.456V47H256.713V36.44H235.785ZM268.005 49V0.967953H310.085V15.528H286.148V17.608H306.629V31.72H286.148V34.44H310.533V49H268.005ZM284.148 36.44V29.72H304.629V19.608H284.148V13.528H308.085V2.96795H270.005V47H308.533V36.44H284.148ZM324.538 43.3897L324.53 43.3812C320.428 39.0384 318.544 32.7885 318.544 24.984C318.544 19.7095 319.527 15.1482 321.613 11.4028C323.698 7.65814 326.745 4.83401 330.692 2.95423C334.609 1.08914 339.249 0.199951 344.544 0.199951C347.767 0.199951 350.818 0.579804 353.687 1.35219C356.604 2.08325 359.206 3.21264 361.466 4.76264C363.808 6.29653 365.654 8.25878 366.968 10.6427C368.307 13.0737 368.944 15.8481 368.944 18.904V49H358.193L357.19 45.8996C356.413 46.3989 355.604 46.8532 354.763 47.2624C353.021 48.1101 351.131 48.7368 349.105 49.1514C347.075 49.5667 344.869 49.768 342.496 49.768C334.825 49.768 328.711 47.7565 324.538 43.3897ZM356.551 43.9247C357.135 43.5277 357.698 43.1021 358.24 42.648L359.648 47H366.944V22.424H343.456V31.384H353.44V31.64C353.44 32.2615 353.319 32.8428 353.078 33.384C352.889 33.8087 352.626 34.2087 352.288 34.584C351.52 35.4373 350.496 36.0986 349.216 36.568C347.979 36.9946 346.613 37.208 345.12 37.208C342.901 37.208 341.024 36.8026 339.488 35.992C337.995 35.1813 336.864 34.0293 336.096 32.536C335.371 31 335.008 29.1653 335.008 27.032V22.936C335.008 21.3146 335.221 19.8853 335.648 18.648C336.075 17.4106 336.693 16.344 337.504 15.448C338.357 14.552 339.424 13.8906 340.704 13.464C341.984 12.9946 343.456 12.76 345.12 12.76C346.229 12.76 347.275 12.9093 348.256 13.208C349.28 13.464 350.176 13.8693 350.944 14.424C351.712 14.936 352.309 15.576 352.736 16.344C353.205 17.112 353.44 17.9653 353.44 18.904H366.944C366.944 18.2163 366.909 17.5496 366.838 16.904C366.623 14.9456 366.082 13.1802 365.216 11.608C364.064 9.51728 362.443 7.78929 360.352 6.42395C358.304 5.01595 355.915 3.97062 353.184 3.28795C350.496 2.56262 347.616 2.19995 344.544 2.19995C339.467 2.19995 335.136 3.05328 331.552 4.75995C327.968 6.46662 325.237 9.00529 323.36 12.376C321.483 15.7466 320.544 19.9493 320.544 24.984C320.544 32.4933 322.357 38.168 325.984 42.008C329.653 45.848 335.157 47.768 342.496 47.768C344.757 47.768 346.827 47.576 348.704 47.192C350.581 46.808 352.309 46.232 353.888 45.464C354.82 45.0104 355.708 44.4973 356.551 43.9247ZM338.97 16.8091C338.363 17.4852 337.882 18.3058 337.539 19.2999C337.199 20.2843 337.008 21.4856 337.008 22.936V27.032C337.008 28.9273 337.328 30.4465 337.89 31.6514C338.47 32.7646 339.303 33.6135 340.432 34.2289C341.61 34.8479 343.145 35.208 345.12 35.208C346.414 35.208 347.55 35.0244 348.546 34.6836C349.483 34.3373 350.171 33.8925 350.672 33.384H341.456V20.424H351.44V18.904C351.44 18.3168 351.298 17.827 351.029 17.3869L351.008 17.3515L350.988 17.3152C350.724 16.8399 350.351 16.4325 349.835 16.0881L349.803 16.0673L349.773 16.0453C349.234 15.6557 348.576 15.3496 347.771 15.1482L347.722 15.136L347.674 15.1213C346.896 14.8846 346.048 14.76 345.12 14.76C343.641 14.76 342.409 14.9689 341.393 15.3417L341.365 15.3519L341.336 15.3613C340.347 15.691 339.575 16.1796 338.97 16.8091ZM381.325 38.5651L381.32 38.5558C379.241 34.7755 378.257 30.2204 378.257 24.984C378.257 19.7095 379.239 15.1482 381.325 11.4028C383.407 7.66474 386.427 4.84029 390.332 2.95826C394.207 1.09075 398.786 0.199951 404 0.199951C409.254 0.199951 413.856 1.08975 417.733 2.95826C421.638 4.84029 424.658 7.66474 426.74 11.4028C428.826 15.1482 429.809 19.7095 429.809 24.984C429.809 30.2204 428.824 34.7755 426.745 38.5558L426.74 38.5651C424.658 42.3032 421.638 45.1276 417.733 47.0096C413.856 48.8782 409.254 49.768 404 49.768C398.786 49.768 394.207 48.8772 390.332 47.0096C386.427 45.1276 383.407 42.3032 381.325 38.5651ZM409.475 33.07L409.493 33.0501C410.093 32.3871 410.551 31.584 410.856 30.6081C411.176 29.5373 411.345 28.3494 411.345 27.032V22.936C411.345 21.6136 411.174 20.4514 410.858 19.4328L410.856 19.4237L410.853 19.4146C410.545 18.3888 410.084 17.5709 409.493 16.9178L409.475 16.8979L409.458 16.8775C408.921 16.251 408.219 15.75 407.301 15.3895L407.26 15.3734L407.22 15.3556C406.373 14.9792 405.316 14.76 404 14.76C402.687 14.76 401.597 14.9785 400.692 15.3662L400.676 15.3733L400.659 15.3801C399.785 15.736 399.093 16.2364 398.543 16.8775C397.979 17.5353 397.527 18.3666 397.212 19.4146L397.209 19.4237L397.207 19.4327C396.891 20.4514 396.72 21.6136 396.72 22.936V27.032C396.72 28.3494 396.889 29.5373 397.209 30.608C397.52 31.6065 397.971 32.4229 398.543 33.0904C399.096 33.7357 399.796 34.2607 400.676 34.6583C401.589 35.0101 402.686 35.208 404 35.208C405.328 35.208 406.401 35.0061 407.262 34.6584C408.195 34.2555 408.912 33.7272 409.458 33.0904L409.475 33.07ZM399.905 36.504C398.753 35.992 397.793 35.288 397.025 34.392C396.257 33.496 395.68 32.4293 395.297 31.192C394.913 29.912 394.72 28.5253 394.72 27.032V22.936C394.72 21.4426 394.913 20.0773 395.297 18.84C395.68 17.56 396.257 16.472 397.025 15.576C397.793 14.68 398.753 13.9973 399.905 13.528C401.099 13.016 402.465 12.76 404 12.76C405.536 12.76 406.88 13.016 408.033 13.528C409.227 13.9973 410.208 14.68 410.977 15.576C411.787 16.472 412.384 17.56 412.768 18.84C413.152 20.0773 413.345 21.4426 413.345 22.936V27.032C413.345 28.5253 413.152 29.912 412.768 31.192C412.384 32.4293 411.787 33.496 410.977 34.392C410.208 35.288 409.227 35.992 408.033 36.504C406.88 36.9733 405.536 37.208 404 37.208C402.465 37.208 401.099 36.9733 399.905 36.504ZM457.725 49V0.967953H480.983L485.394 17.9113C485.583 18.5338 485.824 19.4837 486.113 20.7225C486.234 21.1759 486.355 21.6418 486.475 22.1201C486.512 21.9746 486.548 21.8289 486.585 21.6829C486.924 20.3267 487.22 19.1014 487.472 18.0062L487.479 17.9791L491.907 0.967953H514.461V49H496.957V32.1004L492.357 49H478.745L474.205 32.5043V49H457.725ZM474.137 24.6211C474.273 25.14 474.397 25.6237 474.509 26.072L480.269 47H490.829L496.525 26.072C496.679 25.5586 496.833 24.9989 496.987 24.3929C497.089 23.9916 497.191 23.5699 497.293 23.128C497.473 22.3173 497.643 21.5066 497.802 20.696C497.804 20.6853 497.806 20.6747 497.808 20.664C497.873 20.3333 497.936 20.0026 497.997 19.672C498.253 18.52 498.445 17.5173 498.573 16.664H499.085C499.085 16.6894 499.085 16.715 499.085 16.7408C499.085 17.3059 499.078 17.9469 499.066 18.664C499.059 19.0432 499.051 19.4437 499.042 19.8654C499.041 19.8782 499.041 19.891 499.041 19.9039C499.035 20.1601 499.028 20.4241 499.021 20.696C499.021 21.6 499.014 22.5372 499.001 23.5075C499.001 23.5124 499.001 23.5172 499.001 23.5221C498.996 23.896 498.99 24.2748 498.983 24.6586C498.975 25.0603 498.967 25.4674 498.957 25.88V47H512.461V2.96795H493.453L489.421 18.456C489.165 19.5653 488.866 20.8026 488.525 22.168C488.184 23.5333 487.842 24.8773 487.501 26.2C487.496 26.2201 487.492 26.2402 487.487 26.2602C487.208 27.4581 486.966 28.5053 486.762 29.4018C486.752 29.4442 486.742 29.4862 486.733 29.528H486.221C486.211 29.4871 486.202 29.4461 486.192 29.4051C485.963 28.4247 485.708 27.3825 485.429 26.2783C485.354 25.9794 485.276 25.676 485.197 25.368C484.856 23.8746 484.514 22.488 484.173 21.208C483.874 19.928 483.64 19.0106 483.469 18.456L479.437 2.96795H459.725V47H472.205V31.128C472.205 29.4213 472.184 27.672 472.141 25.88C472.141 25.5449 472.14 25.2129 472.139 24.8839C472.137 24.4378 472.133 23.9972 472.129 23.5621C472.128 23.5368 472.128 23.5116 472.128 23.4865C472.117 22.5523 472.1 21.6434 472.077 20.76C472.069 20.4478 472.061 20.1459 472.052 19.8543C472.041 19.4601 472.03 19.0846 472.019 18.728C471.997 18.0236 471.975 17.3926 471.953 16.8349C471.952 16.7989 471.95 16.7633 471.949 16.728H472.461C472.632 17.5386 472.824 18.52 473.037 19.672C473.102 20.0244 473.17 20.3769 473.239 20.7294C473.396 21.5289 473.563 22.3284 473.741 23.128C473.883 23.6545 474.015 24.1522 474.137 24.6211ZM539.496 49V30.5036L520.344 0.967953H541.436L548.856 13.8411L556.277 0.967953H576.508L557.641 30.4963V49H539.496ZM555.641 29.912L572.857 2.96795H557.432L548.984 17.624H548.728L540.28 2.96795H524.024L541.496 29.912V47H555.641V29.912ZM592.125 33.16V28.056C592.125 26.9374 592.409 25.8752 592.958 24.8994L592.981 24.8591L593.005 24.82C593.505 24.0195 594.098 23.257 594.775 22.5313L594.798 22.5061L594.823 22.4817C595.494 21.8104 596.207 21.142 596.962 20.4763C597.644 19.8746 598.258 19.2795 598.807 18.6913L598.81 18.6881C599.345 18.1173 599.747 17.5562 600.037 17.0082L600.047 16.9903L600.057 16.9727C600.323 16.4926 600.445 16.0151 600.445 15.512C600.445 15.1068 600.387 14.7679 600.292 14.4804L600.284 14.4583L600.277 14.4361C600.176 14.1068 600.034 13.8436 599.859 13.6253C599.702 13.4291 599.543 13.3122 599.377 13.2367L599.311 13.2066L599.247 13.1717C599.125 13.1048 598.912 13.032 598.541 13.032C597.821 13.032 597.393 13.1452 597.157 13.2566C596.916 13.3911 596.734 13.5559 596.589 13.759C596.427 14.0507 596.298 14.3978 596.214 14.8162C596.113 15.3213 596.061 15.851 596.061 16.408V17.304C596.061 17.4504 596.073 17.6321 596.105 17.8531L596.431 20.136H580.539L580.359 18.335C580.317 17.9148 580.275 17.5168 580.233 17.1408C580.182 16.6764 580.157 16.1969 580.157 15.704C580.157 13.8141 580.473 12.0266 581.128 10.3629C581.776 8.71822 582.705 7.25804 583.914 5.99889L583.915 5.99774C585.139 4.72531 586.571 3.66117 588.197 2.80037C589.817 1.94303 591.584 1.30953 593.487 0.890228C595.438 0.427124 597.488 0.199951 599.629 0.199951C601.725 0.199951 603.698 0.426524 605.537 0.895177C607.389 1.31457 609.078 1.94978 610.584 2.81917C612.13 3.64484 613.467 4.68046 614.57 5.9347C615.671 7.18528 616.519 8.60847 617.113 10.1903C617.722 11.7655 618.013 13.4614 618.013 15.256C618.013 16.9606 617.687 18.5596 616.99 20.0126C616.389 21.3104 615.59 22.4842 614.599 23.5286C613.715 24.5033 612.759 25.3885 611.732 26.1825L611.721 26.1909C610.813 26.883 609.923 27.5341 609.053 28.1438C608.327 28.68 607.741 29.1764 607.282 29.6313C607.154 29.7749 607.098 29.872 607.077 29.9181C607.073 29.9259 607.071 29.932 607.069 29.9365V33.16H608.029V49H591.357V33.16H592.125ZM607.885 26.52C608.738 25.9226 609.613 25.2826 610.509 24.6C611.448 23.8746 612.322 23.064 613.133 22.168C613.986 21.272 614.669 20.2693 615.181 19.16C615.736 18.008 616.013 16.7066 616.013 15.256C616.013 13.6773 615.757 12.2266 615.245 10.904C614.733 9.53862 614.008 8.32262 613.069 7.25595C612.13 6.18929 610.978 5.29329 609.613 4.56795C608.29 3.79995 606.776 3.22395 605.069 2.83995C603.405 2.41328 601.592 2.19995 599.629 2.19995C597.624 2.19995 595.725 2.41328 593.933 2.83995C592.184 3.22395 590.584 3.79995 589.133 4.56795C587.682 5.33595 586.424 6.27462 585.357 7.38395C584.333 8.45062 583.544 9.68795 582.989 11.096C582.434 12.504 582.157 14.04 582.157 15.704C582.157 16.1306 582.178 16.536 582.221 16.92C582.264 17.304 582.306 17.7093 582.349 18.136H594.125C594.082 17.8373 594.061 17.56 594.061 17.304V16.408C594.061 16.3169 594.062 16.2262 594.064 16.136C594.079 15.5493 594.142 14.9786 594.253 14.424C594.381 13.784 594.594 13.208 594.893 12.696C595.234 12.184 595.682 11.7786 596.237 11.48C596.834 11.1813 597.602 11.032 598.541 11.032C599.181 11.032 599.736 11.16 600.205 11.416C600.674 11.6293 601.08 11.9493 601.421 12.376C601.762 12.8026 602.018 13.2933 602.189 13.848C602.36 14.36 602.445 14.9146 602.445 15.512C602.445 16.3653 602.232 17.176 601.805 17.944C601.421 18.6693 600.909 19.3733 600.269 20.056C599.672 20.696 599.01 21.336 598.285 21.976C597.56 22.616 596.877 23.256 596.237 23.896C595.64 24.536 595.128 25.1973 594.701 25.88C594.317 26.5626 594.125 27.288 594.125 28.056V31.256H605.069V29.912C605.069 29.3573 605.325 28.8026 605.837 28.248C606.392 27.6933 607.074 27.1173 607.885 26.52ZM391.201 45.208C394.742 46.9146 399.008 47.768 404 47.768C409.035 47.768 413.323 46.9146 416.865 45.208C420.406 43.5013 423.115 40.9626 424.992 37.592C426.87 34.1786 427.809 29.976 427.809 24.984C427.809 19.9493 426.87 15.7466 424.992 12.376C423.115 9.00529 420.406 6.46662 416.865 4.75995C413.323 3.05328 409.035 2.19995 404 2.19995C399.008 2.19995 394.742 3.05328 391.201 4.75995C387.659 6.46662 384.95 9.00529 383.073 12.376C381.195 15.7466 380.257 19.9493 380.257 24.984C380.257 29.976 381.195 34.1786 383.073 37.592C384.95 40.9626 387.659 43.5013 391.201 45.208ZM593.357 47H606.029V35.16H593.357V47Z" fill="#F7CD00"/>
</svg>
