<svg width="140" height="40" viewBox="0 0 140 40" fill="none" xmlns="http://www.w3.org/2000/svg">
<g clip-path="url(#clip0_423_181)">
<path d="M31.6326 22.887H37.0448L43.8236 30.8427L50.4618 22.887H55.874L46.1017 34.5392L46.1532 39.6197L41.6651 39.6595L41.6136 34.579L31.6326 22.887Z" fill="#F7CD00"/>
<path d="M68.3518 34.5104L72.5908 34.4719C71.6515 38.1724 68.0262 39.9506 62.5889 39.9987C57.0028 40.0481 52.6441 37.9212 52.5954 32.6059C52.5481 27.2659 56.7425 25.0634 62.703 25.0112C68.2906 24.9618 72.7718 26.8168 72.8316 33.4119L56.9666 33.5492C57.462 35.8574 59.7124 36.6002 62.5555 36.57C65.5017 36.5522 67.2928 35.9961 68.3518 34.5104ZM57.0946 30.8689L68.2433 30.77C67.4959 28.7337 65.4084 28.1858 62.7072 28.2106C59.7889 28.2353 57.7543 28.8202 57.0946 30.8689Z" fill="#F7CD00"/>
<path d="M86.5866 32.6072C86.5379 27.2672 90.6085 25.0661 96.6943 25.0126C102.754 24.959 106.888 27.0887 106.937 32.4274C106.986 37.7427 102.89 39.9438 96.8293 39.9973C90.7435 40.0522 86.6339 37.9225 86.5866 32.6072ZM102.648 32.4699C102.62 29.4491 100.666 28.5016 96.7249 28.536C92.7601 28.5703 90.8228 29.548 90.8507 32.5743C90.8785 35.5759 92.8324 36.5192 96.7973 36.4835C100.738 36.4451 102.674 35.4688 102.648 32.4658V32.4699Z" fill="#F7CD00"/>
<path d="M139.167 24.8849L132.689 39.4398L127.002 39.4893L122.596 29.4395L118.374 39.5662L112.688 39.6156L105.946 25.1774L110.71 25.1362L115.625 36.2899L120.013 25.0538L125.101 25.0098L129.694 36.1416L134.406 24.9275L139.167 24.8849Z" fill="#F7CD00"/>
<path d="M78.6835 20.0062H74.5071V39.6224H78.6835V20.0062Z" fill="#F7CD00"/>
<path d="M84.8986 20.0062H80.7222V39.6224H84.8986V20.0062Z" fill="#F7CD00"/>
<path d="M33.0995 11.8581C33.055 6.86002 36.857 4.79898 42.5628 4.74955C48.2353 4.70012 52.1055 6.6925 52.15 11.6906C52.196 16.6654 48.3619 18.7264 42.6867 18.7758C36.9906 18.8267 33.144 16.8329 33.0995 11.8581ZM48.1295 11.7208C48.1045 8.8881 46.2758 8.00519 42.5865 8.03815C38.8749 8.06973 37.063 8.98422 37.088 11.8183C37.1145 14.6277 38.9431 15.5092 42.6547 15.4776C46.3426 15.4502 48.1587 14.5357 48.1323 11.7263L48.1295 11.7208Z" fill="white"/>
<path d="M72.7201 4.87451L72.8425 18.6056H68.8512L68.829 16.101C66.8806 17.6389 64.1836 18.7456 60.8464 18.7745C57.1821 18.8074 53.7377 17.5469 53.6459 12.5502L53.625 5.04066L57.64 5.00633L57.6942 11.0164C57.7207 13.8999 58.7143 15.3843 62.0084 15.3554C64.6929 15.3321 67.5751 13.948 68.7997 12.509L68.7315 4.90884L72.7201 4.87451Z" fill="white"/>
<path d="M93.5786 11.703C93.6259 16.8851 89.86 18.7374 85.4484 18.7759C82.4842 18.802 80.0724 18.0179 78.5639 16.4869L78.5833 18.607H74.5934L74.425 0H78.4163L78.4804 7.15938C79.9597 5.60365 82.3576 4.77567 85.3218 4.74958C89.7334 4.71113 93.5326 6.52089 93.5786 11.703ZM89.5636 11.7373C89.5399 9.04329 87.593 8.02307 84.0206 8.05465C80.4482 8.08623 78.4985 9.14078 78.5221 11.8348C78.5458 14.5069 80.5164 15.5257 84.0888 15.4941C87.6612 15.4626 89.5873 14.4094 89.5636 11.7373Z" fill="white"/>
<path d="M116.483 13.6377L120.452 13.6034C119.572 17.0664 116.179 18.7306 111.09 18.7759C105.861 18.8226 101.781 16.8316 101.736 11.8554C101.691 6.85869 105.618 4.79628 111.2 4.74823C116.43 4.70154 120.624 6.43852 120.68 12.6106L105.834 12.7479C106.297 14.9092 108.404 15.6054 111.065 15.582C113.808 15.5505 115.485 15.0287 116.483 13.6377ZM105.939 10.2297L116.377 10.1377C115.68 8.23866 113.715 7.71963 111.194 7.7416C108.462 7.76632 106.553 8.31281 105.939 10.2297Z" fill="white"/>
<path d="M99.0854 0H95.1094V18.7773H99.0854V0Z" fill="white"/>
<path d="M23.6791 2.58963L7.88647 2.69399L12.5889 6.12676H17.0965L22.1274 6.08145C25.3032 6.05261 27.4561 6.70209 27.4909 10.6127C27.5257 14.5233 25.3853 15.214 22.2109 15.2428L15.8273 15.2936V18.7978L23.8294 18.7058C28.0545 18.6687 31.7424 16.0571 31.6937 10.5756C31.645 5.09418 27.9042 2.55256 23.6791 2.58963Z" fill="white"/>
<path d="M5.7782 31.4428H0V0.153809L18.697 13.8492L15.833 13.8245L1.6867 3.46849V29.7786H7.25754L5.7782 31.4428Z" fill="white"/>
<path d="M24.304 39.6485L7.06958 39.5606V31.8273L15.6116 22.9199L16.6164 24.0871L8.75628 32.4273V37.906L24.3137 37.9843L24.304 39.6485Z" fill="#F7CD00"/>
<path d="M24.304 33.0947H28.6015L20.026 22.9199H15.5671L24.304 33.0947Z" fill="#F7CD00"/>
<path d="M32.3604 33.0947H36.6579L28.0824 22.9199H23.6235L32.3604 33.0947Z" fill="#F7CD00"/>
<path d="M7.43014 13.6597H4.59253V9.01721L7.43014 11.14V13.6597Z" fill="#F7CD00"/>
<path d="M11.0903 16.2136H8.25269V20.8561H11.0903V16.2136Z" fill="#F7CD00"/>
</g>
<defs>
<clipPath id="clip0_423_181">
<rect width="139.167" height="40" fill="white"/>
</clipPath>
</defs>
</svg>
